<svg width="72" height="72" viewBox="0 0 72 72" fill="none" xmlns="http://www.w3.org/2000/svg">
<rect width="72" height="72" rx="36" fill="#BBC3FF"/>
<path d="M15.0003 23.667C13.1603 23.667 11.667 25.1603 11.667 27.0003C11.667 28.8403 13.1603 30.3337 15.0003 30.3337C16.8403 30.3337 18.3337 28.8403 18.3337 27.0003C18.3337 25.1603 16.8403 23.667 15.0003 23.667ZM15.0003 29.667C13.527 29.667 12.3337 28.4737 12.3337 27.0003C12.3337 25.527 13.527 24.3337 15.0003 24.3337C16.4737 24.3337 17.667 25.527 17.667 27.0003C17.667 28.4737 16.4737 29.667 15.0003 29.667Z" fill="#1B2678"/>
<path d="M29.0003 23.667C27.1603 23.667 25.667 25.1603 25.667 27.0003C25.667 28.8403 27.1603 30.3337 29.0003 30.3337C30.8403 30.3337 32.3337 28.8403 32.3337 27.0003C32.3337 25.1603 30.8403 23.667 29.0003 23.667ZM29.0003 29.667C27.527 29.667 26.3337 28.4737 26.3337 27.0003C26.3337 25.527 27.527 24.3337 29.0003 24.3337C30.4737 24.3337 31.667 25.527 31.667 27.0003C31.667 28.4737 30.4737 29.667 29.0003 29.667Z" fill="#1B2678"/>
<path d="M43.0003 23.667C41.1603 23.667 39.667 25.1603 39.667 27.0003C39.667 28.8403 41.1603 30.3337 43.0003 30.3337C44.8403 30.3337 46.3337 28.8403 46.3337 27.0003C46.3337 25.1603 44.8403 23.667 43.0003 23.667ZM43.0003 29.667C41.527 29.667 40.3337 28.4737 40.3337 27.0003C40.3337 25.527 41.527 24.3337 43.0003 24.3337C44.4737 24.3337 45.667 25.527 45.667 27.0003C45.667 28.4737 44.4737 29.667 43.0003 29.667Z" fill="#1B2678"/>
<path d="M57.0003 25.3337C56.0803 25.3337 55.3337 26.0803 55.3337 27.0003C55.3337 27.9203 56.0803 28.667 57.0003 28.667C57.9203 28.667 58.667 27.9203 58.667 27.0003C58.667 26.0803 57.9203 25.3337 57.0003 25.3337ZM57.0003 23.667C55.1603 23.667 53.667 25.1603 53.667 27.0003C53.667 28.8403 55.1603 30.3337 57.0003 30.3337C58.8403 30.3337 60.3337 28.8403 60.3337 27.0003C60.3337 25.1603 58.8403 23.667 57.0003 23.667ZM57.0003 29.667C55.527 29.667 54.3337 28.4737 54.3337 27.0003C54.3337 25.527 55.527 24.3337 57.0003 24.3337C58.4737 24.3337 59.667 25.527 59.667 27.0003C59.667 28.4737 58.4737 29.667 57.0003 29.667Z" fill="#1B2678"/>
<path d="M14.3 41.13C14.0467 40.9967 13.7733 40.8833 13.48 40.79C13.1867 40.6967 12.9033 40.65 12.63 40.65C12.2567 40.65 11.96 40.7367 11.74 40.91C11.52 41.0767 11.41 41.3067 11.41 41.6C11.41 41.8067 11.4833 41.9867 11.63 42.14C11.7767 42.2933 11.9667 42.4267 12.2 42.54C12.4333 42.6533 12.68 42.76 12.94 42.86C13.16 42.94 13.3767 43.0367 13.59 43.15C13.81 43.2567 14.0067 43.39 14.18 43.55C14.36 43.71 14.5 43.91 14.6 44.15C14.7067 44.3833 14.76 44.67 14.76 45.01C14.76 45.3967 14.6633 45.7467 14.47 46.06C14.2833 46.3733 14.01 46.6233 13.65 46.81C13.2967 46.99 12.8667 47.08 12.36 47.08C12.0533 47.08 11.7533 47.0467 11.46 46.98C11.1733 46.9067 10.9 46.8133 10.64 46.7C10.3867 46.58 10.1567 46.45 9.95 46.31L10.43 45.48C10.59 45.5933 10.7733 45.7033 10.98 45.81C11.1867 45.91 11.4 45.99 11.62 46.05C11.8467 46.11 12.06 46.14 12.26 46.14C12.48 46.14 12.6967 46.1033 12.91 46.03C13.1233 45.95 13.3 45.83 13.44 45.67C13.58 45.5033 13.65 45.2867 13.65 45.02C13.65 44.7933 13.5867 44.6033 13.46 44.45C13.34 44.29 13.1767 44.1533 12.97 44.04C12.77 43.9267 12.5533 43.8267 12.32 43.74C12.0933 43.6533 11.8633 43.5567 11.63 43.45C11.3967 43.3433 11.18 43.2167 10.98 43.07C10.78 42.9167 10.6167 42.73 10.49 42.51C10.37 42.2833 10.31 42.0067 10.31 41.68C10.31 41.2933 10.4 40.9567 10.58 40.67C10.7667 40.3767 11.0233 40.1467 11.35 39.98C11.6767 39.8133 12.0533 39.72 12.48 39.7C12.9667 39.7 13.39 39.76 13.75 39.88C14.11 40 14.43 40.1433 14.71 40.31L14.3 41.13ZM19.5403 46.61C19.3536 46.7633 19.127 46.8833 18.8603 46.97C18.6003 47.0567 18.337 47.1 18.0703 47.1C17.6103 47.1 17.2036 47.01 16.8503 46.83C16.5036 46.65 16.2336 46.3967 16.0403 46.07C15.847 45.7433 15.7503 45.3533 15.7503 44.9C15.7503 44.4533 15.8536 44.0667 16.0603 43.74C16.267 43.4067 16.5403 43.1533 16.8803 42.98C17.2203 42.8 17.5803 42.71 17.9603 42.71C18.307 42.71 18.6136 42.7567 18.8803 42.85C19.147 42.9433 19.377 43.0733 19.5703 43.24L19.0603 43.91C18.947 43.8167 18.8036 43.7333 18.6303 43.66C18.4636 43.5867 18.2703 43.55 18.0503 43.55C17.817 43.55 17.6036 43.61 17.4103 43.73C17.217 43.8433 17.0636 44.0033 16.9503 44.21C16.837 44.41 16.7803 44.64 16.7803 44.9C16.7803 45.1467 16.837 45.3767 16.9503 45.59C17.0703 45.7967 17.2336 45.96 17.4403 46.08C17.647 46.2 17.8836 46.26 18.1503 46.26C18.3236 46.26 18.4836 46.2367 18.6303 46.19C18.777 46.1367 18.907 46.0633 19.0203 45.97L19.5403 46.61ZM20.7197 47V39.23H21.7197V43.76L21.7097 43.59C21.8497 43.3167 22.063 43.09 22.3497 42.91C22.6364 42.73 22.9797 42.64 23.3797 42.64C23.773 42.64 24.0964 42.7567 24.3497 42.99C24.6097 43.2233 24.743 43.5267 24.7497 43.9V47H23.7197V44.26C23.713 44.0467 23.6497 43.8733 23.5297 43.74C23.4097 43.6 23.223 43.5267 22.9697 43.52C22.743 43.52 22.5364 43.59 22.3497 43.73C22.163 43.8633 22.0164 44.05 21.9097 44.29C21.803 44.5233 21.7497 44.79 21.7497 45.09V47H20.7197ZM28.2952 47.1C27.8085 47.1 27.3918 47.0067 27.0452 46.82C26.6985 46.6267 26.4318 46.3633 26.2452 46.03C26.0585 45.69 25.9652 45.3033 25.9652 44.87C25.9652 44.4567 26.0685 44.0833 26.2752 43.75C26.4885 43.41 26.7718 43.14 27.1252 42.94C27.4852 42.74 27.8818 42.64 28.3152 42.64C28.8752 42.64 29.3385 42.8033 29.7052 43.13C30.0785 43.4567 30.3285 43.9133 30.4552 44.5L27.0452 45.68L26.8052 45.08L29.5352 44.1L29.3252 44.23C29.2452 44.0233 29.1185 43.8433 28.9452 43.69C28.7718 43.53 28.5352 43.45 28.2352 43.45C27.9952 43.45 27.7785 43.51 27.5852 43.63C27.3985 43.7433 27.2485 43.9033 27.1352 44.11C27.0285 44.31 26.9752 44.5467 26.9752 44.82C26.9752 45.1 27.0318 45.3467 27.1452 45.56C27.2652 45.7667 27.4252 45.93 27.6252 46.05C27.8318 46.17 28.0618 46.23 28.3152 46.23C28.4952 46.23 28.6652 46.1967 28.8252 46.13C28.9918 46.0633 29.1485 45.98 29.2952 45.88L29.7652 46.64C29.5452 46.78 29.3052 46.8933 29.0452 46.98C28.7918 47.06 28.5418 47.1 28.2952 47.1ZM33.3086 47.1C32.9153 47.1 32.5619 47.01 32.2486 46.83C31.9353 46.6433 31.6886 46.38 31.5086 46.04C31.3286 45.7 31.2386 45.3033 31.2386 44.85C31.2386 44.3833 31.3353 43.9867 31.5286 43.66C31.7219 43.3267 31.9819 43.0733 32.3086 42.9C32.6419 42.72 33.0153 42.63 33.4286 42.63C33.7486 42.63 34.0519 42.6967 34.3386 42.83C34.6319 42.9567 34.8586 43.1367 35.0186 43.37L34.9886 43.72V39.23H36.0086V47H34.9786V46.01L35.0886 46.28C34.8819 46.5133 34.6286 46.71 34.3286 46.87C34.0286 47.0233 33.6886 47.1 33.3086 47.1ZM33.6286 46.23C33.8619 46.23 34.0686 46.19 34.2486 46.11C34.4286 46.03 34.5819 45.9167 34.7086 45.77C34.8353 45.6167 34.9253 45.44 34.9786 45.24V44.4C34.9319 44.2133 34.8419 44.05 34.7086 43.91C34.5819 43.7633 34.4253 43.65 34.2386 43.57C34.0519 43.49 33.8486 43.45 33.6286 43.45C33.3819 43.45 33.1553 43.51 32.9486 43.63C32.7486 43.7433 32.5853 43.9033 32.4586 44.11C32.3386 44.3167 32.2786 44.5567 32.2786 44.83C32.2786 45.09 32.3386 45.3267 32.4586 45.54C32.5853 45.7533 32.7519 45.9233 32.9586 46.05C33.1653 46.17 33.3886 46.23 33.6286 46.23ZM38.9249 47.17C38.5383 47.17 38.2216 47.0533 37.9749 46.82C37.7283 46.5867 37.5983 46.2867 37.5849 45.92V42.81H38.6149V45.55C38.6283 45.7633 38.6883 45.94 38.7949 46.08C38.9083 46.2133 39.0883 46.2833 39.3349 46.29C39.5616 46.29 39.7616 46.2233 39.9349 46.09C40.1149 45.95 40.2549 45.7633 40.3549 45.53C40.4616 45.29 40.5149 45.0167 40.5149 44.71V42.81H41.5449V47H40.6149L40.5349 46.03L40.5749 46.19C40.4883 46.3767 40.3649 46.5467 40.2049 46.7C40.0449 46.8467 39.8549 46.96 39.6349 47.04C39.4149 47.1267 39.1783 47.17 38.9249 47.17ZM43.122 39.23H44.152V47H43.122V39.23ZM47.6897 47.1C47.203 47.1 46.7864 47.0067 46.4397 46.82C46.093 46.6267 45.8264 46.3633 45.6397 46.03C45.453 45.69 45.3597 45.3033 45.3597 44.87C45.3597 44.4567 45.463 44.0833 45.6697 43.75C45.883 43.41 46.1664 43.14 46.5197 42.94C46.8797 42.74 47.2764 42.64 47.7097 42.64C48.2697 42.64 48.733 42.8033 49.0997 43.13C49.473 43.4567 49.723 43.9133 49.8497 44.5L46.4397 45.68L46.1997 45.08L48.9297 44.1L48.7197 44.23C48.6397 44.0233 48.513 43.8433 48.3397 43.69C48.1664 43.53 47.9297 43.45 47.6297 43.45C47.3897 43.45 47.173 43.51 46.9797 43.63C46.793 43.7433 46.643 43.9033 46.5297 44.11C46.423 44.31 46.3697 44.5467 46.3697 44.82C46.3697 45.1 46.4264 45.3467 46.5397 45.56C46.6597 45.7667 46.8197 45.93 47.0197 46.05C47.2264 46.17 47.4564 46.23 47.7097 46.23C47.8897 46.23 48.0597 46.1967 48.2197 46.13C48.3864 46.0633 48.543 45.98 48.6897 45.88L49.1597 46.64C48.9397 46.78 48.6997 46.8933 48.4397 46.98C48.1864 47.06 47.9364 47.1 47.6897 47.1ZM60.7367 47.25L55.1467 41.7L55.4567 41.8L55.4867 47H54.4067V39.51H54.4567L59.9767 45.07L59.7267 45L59.7067 39.74H60.7667V47.25H60.7367Z" fill="#1B2678"/>
</svg>
