<svg width="112" height="112" viewBox="0 0 112 112" fill="none" xmlns="http://www.w3.org/2000/svg">
<rect width="112" height="112" rx="56" fill="#4C57A9"/>
<g clip-path="url(#clip0_610_6748)">
<path d="M24.6041 37.5688C21.8532 37.5688 19.6206 39.8015 19.6206 42.5524C19.6206 45.3033 21.8532 47.5359 24.6041 47.5359C27.3551 47.5359 29.5877 45.3033 29.5877 42.5524C29.5877 39.8015 27.3551 37.5688 24.6041 37.5688ZM24.6041 46.5392C22.4014 46.5392 20.6173 44.7551 20.6173 42.5524C20.6173 40.3497 22.4014 38.5656 24.6041 38.5656C26.8069 38.5656 28.591 40.3497 28.591 42.5524C28.591 44.7551 26.8069 46.5392 24.6041 46.5392Z" fill="#FDF6F4"/>
</g>
<g clip-path="url(#clip1_610_6748)">
<path d="M45.5348 37.5688C42.7839 37.5688 40.5513 39.8015 40.5513 42.5524C40.5513 45.3033 42.7839 47.5359 45.5348 47.5359C48.2857 47.5359 50.5183 45.3033 50.5183 42.5524C50.5183 39.8015 48.2857 37.5688 45.5348 37.5688ZM45.5348 46.5392C43.3321 46.5392 41.548 44.7551 41.548 42.5524C41.548 40.3497 43.3321 38.5656 45.5348 38.5656C47.7375 38.5656 49.5216 40.3497 49.5216 42.5524C49.5216 44.7551 47.7375 46.5392 45.5348 46.5392Z" fill="#FDF6F4"/>
</g>
<g clip-path="url(#clip2_610_6748)">
<path d="M66.466 37.5688C63.715 37.5688 61.4824 39.8015 61.4824 42.5524C61.4824 45.3033 63.715 47.5359 66.466 47.5359C69.2169 47.5359 71.4495 45.3033 71.4495 42.5524C71.4495 39.8015 69.2169 37.5688 66.466 37.5688ZM66.466 46.5392C64.2632 46.5392 62.4791 44.7551 62.4791 42.5524C62.4791 40.3497 64.2632 38.5656 66.466 38.5656C68.6687 38.5656 70.4528 40.3497 70.4528 42.5524C70.4528 44.7551 68.6687 46.5392 66.466 46.5392Z" fill="#FDF6F4"/>
</g>
<g clip-path="url(#clip3_610_6748)">
<path d="M87.3966 40.0606C86.0212 40.0606 84.9049 41.1769 84.9049 42.5524C84.9049 43.9278 86.0212 45.0442 87.3966 45.0442C88.7721 45.0442 89.8884 43.9278 89.8884 42.5524C89.8884 41.1769 88.7721 40.0606 87.3966 40.0606ZM87.3966 37.5688C84.6457 37.5688 82.4131 39.8015 82.4131 42.5524C82.4131 45.3033 84.6457 47.5359 87.3966 47.5359C90.1475 47.5359 92.3802 45.3033 92.3802 42.5524C92.3802 39.8015 90.1475 37.5688 87.3966 37.5688ZM87.3966 46.5392C85.1939 46.5392 83.4098 44.7551 83.4098 42.5524C83.4098 40.3497 85.1939 38.5656 87.3966 38.5656C89.5993 38.5656 91.3835 40.3497 91.3835 42.5524C91.3835 44.7551 89.5993 46.5392 87.3966 46.5392Z" fill="#F9E3DD"/>
</g>
<path d="M20.8322 62.9975C20.4224 62.7818 19.9802 62.5985 19.5057 62.4475C19.0311 62.2965 18.5727 62.221 18.1305 62.221C17.5266 62.221 17.0466 62.3612 16.6907 62.6416C16.3348 62.9113 16.1569 63.2833 16.1569 63.7579C16.1569 64.0922 16.2755 64.3834 16.5128 64.6315C16.75 64.8796 17.0574 65.0953 17.4349 65.2786C17.8124 65.462 18.2114 65.6345 18.6321 65.7963C18.988 65.9257 19.3385 66.0821 19.6836 66.2655C20.0395 66.438 20.3577 66.6537 20.6381 66.9126C20.9293 67.1714 21.1558 67.495 21.3176 67.8832C21.4901 68.2607 21.5764 68.7245 21.5764 69.2745C21.5764 69.9001 21.42 70.4663 21.1073 70.9732C20.8053 71.4801 20.3631 71.8845 19.7807 72.1865C19.2091 72.4777 18.5134 72.6233 17.6937 72.6233C17.1976 72.6233 16.7123 72.5694 16.2377 72.4615C15.774 72.3429 15.3318 72.1919 14.9112 72.0086C14.5013 71.8144 14.1292 71.6041 13.7949 71.3776L14.5714 70.0349C14.8303 70.2182 15.1269 70.3962 15.4612 70.5687C15.7955 70.7305 16.1407 70.8599 16.4966 70.957C16.8633 71.0541 17.2084 71.1026 17.532 71.1026C17.8879 71.1026 18.2384 71.0433 18.5835 70.9247C18.9286 70.7952 19.2145 70.6011 19.4409 70.3423C19.6674 70.0726 19.7807 69.7221 19.7807 69.2907C19.7807 68.924 19.6782 68.6166 19.4733 68.3686C19.2792 68.1097 19.0149 67.8886 18.6806 67.7053C18.357 67.5219 18.0065 67.3601 17.629 67.2199C17.2623 67.0797 16.8902 66.9233 16.5128 66.7508C16.1353 66.5782 15.7848 66.3733 15.4612 66.136C15.1377 65.888 14.8734 65.586 14.6685 65.2301C14.4744 64.8634 14.3773 64.4158 14.3773 63.8873C14.3773 63.2618 14.5229 62.7171 14.8141 62.2534C15.1161 61.7788 15.5313 61.4067 16.0598 61.1371C16.5883 60.8675 17.1976 60.7165 17.8879 60.6841C18.6752 60.6841 19.3601 60.7812 19.9425 60.9753C20.5249 61.1695 21.0425 61.4013 21.4955 61.671L20.8322 62.9975ZM29.3099 71.863C29.0079 72.111 28.6412 72.3052 28.2098 72.4454C27.7892 72.5856 27.3632 72.6557 26.9318 72.6557C26.1876 72.6557 25.5297 72.5101 24.9581 72.2189C24.3972 71.9277 23.9604 71.5178 23.6477 70.9894C23.3349 70.4609 23.1785 69.83 23.1785 69.0966C23.1785 68.374 23.3457 67.7484 23.68 67.2199C24.0144 66.6807 24.4566 66.2708 25.0066 65.9904C25.5566 65.6992 26.139 65.5536 26.7538 65.5536C27.3146 65.5536 27.8107 65.6291 28.2422 65.7801C28.6736 65.9311 29.0457 66.1414 29.3584 66.4111L28.5334 67.495C28.35 67.344 28.1181 67.2092 27.8377 67.0905C27.5681 66.9719 27.2553 66.9126 26.8994 66.9126C26.5219 66.9126 26.1768 67.0096 25.864 67.2038C25.5513 67.3871 25.3032 67.646 25.1198 67.9803C24.9365 68.3039 24.8448 68.6759 24.8448 69.0966C24.8448 69.4956 24.9365 69.8677 25.1198 70.2128C25.314 70.5472 25.5782 70.8114 25.9126 71.0055C26.2469 71.1997 26.6298 71.2967 27.0612 71.2967C27.3416 71.2967 27.6004 71.259 27.8377 71.1835C28.075 71.0972 28.2853 70.9786 28.4686 70.8276L29.3099 71.863ZM31.2179 72.4939V59.9238H32.8356V67.2523L32.8195 66.9773C33.0459 66.5351 33.3911 66.1684 33.8548 65.8772C34.3186 65.586 34.874 65.4404 35.5211 65.4404C36.1575 65.4404 36.6806 65.6291 37.0904 66.0066C37.511 66.3841 37.7267 66.8748 37.7375 67.4788V72.4939H36.0712V68.0612C36.0604 67.7161 35.9579 67.4356 35.7638 67.2199C35.5697 66.9935 35.2677 66.8748 34.8579 66.864C34.4912 66.864 34.1568 66.9773 33.8548 67.2038C33.5528 67.4195 33.3156 67.7215 33.143 68.1097C32.9704 68.4872 32.8842 68.9186 32.8842 69.4039V72.4939H31.2179ZM43.4733 72.6557C42.686 72.6557 42.0119 72.5047 41.4511 72.2027C40.8902 71.8899 40.4588 71.4639 40.1568 70.9247C39.8549 70.3746 39.7039 69.7491 39.7039 69.048C39.7039 68.3793 39.871 67.7754 40.2054 67.2361C40.5505 66.6861 41.0089 66.2493 41.5805 65.9257C42.1629 65.6022 42.8046 65.4404 43.5056 65.4404C44.4116 65.4404 45.1612 65.7046 45.7543 66.2331C46.3583 66.7616 46.7628 67.5004 46.9677 68.4495L41.4511 70.3584L41.0628 69.3878L45.4793 67.8023L45.1396 68.0127C45.0102 67.6783 44.8053 67.3871 44.5248 67.1391C44.2444 66.8802 43.8615 66.7508 43.3762 66.7508C42.9879 66.7508 42.6374 66.8479 42.3247 67.042C42.0227 67.2253 41.78 67.4842 41.5967 67.8185C41.4241 68.1421 41.3378 68.5249 41.3378 68.9671C41.3378 69.4201 41.4295 69.8192 41.6128 70.1643C41.807 70.4986 42.0658 70.7629 42.3894 70.957C42.7237 71.1511 43.0958 71.2482 43.5056 71.2482C43.7968 71.2482 44.0719 71.1943 44.3307 71.0864C44.6003 70.9786 44.8538 70.8438 45.0911 70.682L45.8514 71.9115C45.4955 72.138 45.1072 72.3213 44.6866 72.4615C44.2768 72.591 43.8723 72.6557 43.4733 72.6557ZM51.5839 72.6557C50.9476 72.6557 50.376 72.5101 49.8691 72.2189C49.3622 71.9169 48.9631 71.4909 48.6719 70.9408C48.3807 70.3908 48.2351 69.7491 48.2351 69.0157C48.2351 68.2607 48.3915 67.619 48.7043 67.0905C49.017 66.5513 49.4377 66.1414 49.9661 65.861C50.5054 65.5698 51.1094 65.4242 51.778 65.4242C52.2957 65.4242 52.7865 65.5321 53.2502 65.7478C53.7248 65.9527 54.0915 66.2439 54.3503 66.6214L54.3018 67.1876V59.9238H55.9519V72.4939H54.2856V70.8923L54.4636 71.3291C54.1292 71.7066 53.7194 72.0247 53.234 72.2836C52.7487 72.5316 52.1987 72.6557 51.5839 72.6557ZM52.1016 71.2482C52.4791 71.2482 52.8134 71.1835 53.1046 71.0541C53.3958 70.9247 53.6439 70.7413 53.8488 70.504C54.0537 70.256 54.1993 69.9702 54.2856 69.6466V68.2877C54.2101 67.9857 54.0645 67.7215 53.8488 67.495C53.6439 67.2577 53.3904 67.0743 53.0884 66.9449C52.7865 66.8155 52.4575 66.7508 52.1016 66.7508C51.7025 66.7508 51.3359 66.8479 51.0015 67.042C50.678 67.2253 50.4137 67.4842 50.2088 67.8185C50.0147 68.1529 49.9176 68.5411 49.9176 68.9833C49.9176 69.4039 50.0147 69.7868 50.2088 70.1319C50.4137 70.4771 50.6833 70.7521 51.0177 70.957C51.352 71.1511 51.7133 71.2482 52.1016 71.2482ZM60.6699 72.7689C60.0443 72.7689 59.532 72.5802 59.133 72.2027C58.7339 71.8252 58.5236 71.3399 58.5021 70.7467V65.7154H60.1684V70.1481C60.1899 70.4932 60.287 70.7791 60.4596 71.0055C60.6429 71.2212 60.9341 71.3345 61.3332 71.3453C61.6999 71.3453 62.0234 71.2374 62.3038 71.0217C62.595 70.7952 62.8215 70.4932 62.9833 70.1158C63.1559 69.7275 63.2421 69.2853 63.2421 68.7892V65.7154H64.9085V72.4939H63.4039L63.2745 70.9247L63.3392 71.1835C63.199 71.4855 62.9995 71.7605 62.7406 72.0086C62.4818 72.2458 62.1744 72.4292 61.8185 72.5586C61.4626 72.6988 61.0797 72.7689 60.6699 72.7689ZM67.4599 59.9238H69.1262V72.4939H67.4599V59.9238ZM74.8493 72.6557C74.062 72.6557 73.3879 72.5047 72.8271 72.2027C72.2663 71.8899 71.8349 71.4639 71.5329 70.9247C71.2309 70.3746 71.0799 69.7491 71.0799 69.048C71.0799 68.3793 71.2471 67.7754 71.5814 67.2361C71.9265 66.6861 72.3849 66.2493 72.9565 65.9257C73.5389 65.6022 74.1806 65.4404 74.8817 65.4404C75.7876 65.4404 76.5372 65.7046 77.1304 66.2331C77.7344 66.7616 78.1388 67.5004 78.3437 68.4495L72.8271 70.3584L72.4388 69.3878L76.8554 67.8023L76.5156 68.0127C76.3862 67.6783 76.1813 67.3871 75.9009 67.1391C75.6205 66.8802 75.2376 66.7508 74.7523 66.7508C74.364 66.7508 74.0135 66.8479 73.7007 67.042C73.3987 67.2253 73.1561 67.4842 72.9727 67.8185C72.8001 68.1421 72.7139 68.5249 72.7139 68.9671C72.7139 69.4201 72.8055 69.8192 72.9889 70.1643C73.183 70.4986 73.4419 70.7629 73.7654 70.957C74.0998 71.1511 74.4718 71.2482 74.8817 71.2482C75.1729 71.2482 75.4479 71.1943 75.7067 71.0864C75.9764 70.9786 76.2298 70.8438 76.4671 70.682L77.2275 71.9115C76.8715 72.138 76.4833 72.3213 76.0627 72.4615C75.6528 72.591 75.2484 72.6557 74.8493 72.6557ZM95.9565 72.8983L86.9131 63.9197L87.4147 64.0815L87.4632 72.4939H85.716V60.3767H85.7969L94.727 69.3716L94.3226 69.2583L94.2902 60.7488H96.0051V72.8983H95.9565Z" fill="#FDF6F4"/>
<defs>
<clipPath id="clip0_610_6748">
<rect width="11.9605" height="11.9605" fill="white" transform="translate(18.6235 36.5728)"/>
</clipPath>
<clipPath id="clip1_610_6748">
<rect width="11.9605" height="11.9605" fill="white" transform="translate(39.5542 36.5728)"/>
</clipPath>
<clipPath id="clip2_610_6748">
<rect width="11.9605" height="11.9605" fill="white" transform="translate(60.4854 36.5728)"/>
</clipPath>
<clipPath id="clip3_610_6748">
<rect width="11.9605" height="11.9605" fill="white" transform="translate(81.416 36.5728)"/>
</clipPath>
</defs>
</svg>
